<svg xmlns="http://www.w3.org/2000/svg" width="430" height="430" style="width:100%;height:100%;transform:translate3d(0,0,0);content-visibility:visible" viewBox="0 0 430 430"><defs><clipPath id="h"><path d="M0 0h430v430H0z"/></clipPath><clipPath id="t"><path d="M0 0h430v430H0z"/></clipPath><clipPath id="u"><path d="M0 0h430v430H0z"/></clipPath><clipPath id="r"><path d="M0 0h430v430H0z"/></clipPath><clipPath id="s"><path d="M0 0h430v430H0z"/></clipPath><clipPath id="n"><path d="M0 0h430v430H0z"/></clipPath><clipPath id="p"><path d="M0 0h430v430H0z"/></clipPath><clipPath id="o"><path d="M0 0h430v430H0z"/></clipPath><clipPath id="i"><path d="M0 0h430v430H0z"/></clipPath><clipPath id="m"><path d="M0 0h430v430H0z"/></clipPath><clipPath id="j"><path d="M0 0h430v430H0z"/></clipPath><mask id="v" mask-type="alpha"><use xmlns:ns1="http://www.w3.org/1999/xlink" ns1:href="#a"/></mask><mask id="q" mask-type="alpha"><g filter="url(#b)"><path fill="#fff" d="M0 0h430v430H0z" opacity="0"/><use xmlns:ns2="http://www.w3.org/1999/xlink" ns2:href="#c"/></g></mask><mask id="l" mask-type="alpha"><g filter="url(#d)"><path fill="#fff" d="M0 0h430v430H0z" opacity="0"/><use xmlns:ns3="http://www.w3.org/1999/xlink" ns3:href="#e"/></g></mask><mask id="k" mask-type="alpha"><g filter="url(#f)"><path fill="#fff" d="M0 0h430v430H0z" opacity="0"/><use xmlns:ns4="http://www.w3.org/1999/xlink" ns4:href="#g"/></g></mask><filter id="b" width="100%" height="100%" x="0%" y="0%" filterUnits="objectBoundingBox"><feComponentTransfer in="SourceGraphic"><feFuncA tableValues="1.0 0.0" type="table"/></feComponentTransfer></filter><filter id="d" width="100%" height="100%" x="0%" y="0%" filterUnits="objectBoundingBox"><feComponentTransfer in="SourceGraphic"><feFuncA tableValues="1.0 0.0" type="table"/></feComponentTransfer></filter><filter id="f" width="100%" height="100%" x="0%" y="0%" filterUnits="objectBoundingBox"><feComponentTransfer in="SourceGraphic"><feFuncA tableValues="1.0 0.0" type="table"/></feComponentTransfer></filter><path id="a" style="display:none"/><path id="c" fill="red" d="M26.69-186.57h.06v106.81h106.68v-.06L26.69-186.57z" style="display:block" transform="translate(214 214.76)"/><g id="e" style="display:none"><path fill-opacity="0"/><path/></g><g id="g" style="display:none"><path fill-opacity="0"/><path/></g></defs><g fill="none" clip-path="url(#h)"><g clip-path="url(#i)" style="display:none"><g clip-path="url(#j)" mask="url(#k)" style="display:none"><path class="secondary" style="display:none"/><path class="secondary" style="display:none"/><path class="secondary" style="display:none"/><path class="secondary" style="display:none"/><path class="secondary" style="display:none"/><path class="secondary" style="display:none"/></g><g mask="url(#l)" style="display:none"><path class="primary"/><path class="primary"/><path class="primary"/></g><g clip-path="url(#m)" style="display:none"><path class="secondary" style="display:none"/><path class="secondary" style="display:none"/><path class="secondary" style="display:none"/><path class="secondary" style="display:none"/><path class="secondary" style="display:none"/><path class="secondary" style="display:none"/></g><path class="primary" style="display:none"/><g style="display:none"><path class="primary"/><path class="primary"/></g><path class="primary" style="display:none"/></g><g clip-path="url(#n)" style="display:block"><g clip-path="url(#o)" style="display:none"><path class="secondary" style="display:none"/><path class="secondary" style="display:none"/><path class="secondary" style="display:none"/><path class="secondary" style="display:none"/><path class="secondary" style="display:none"/><path class="secondary" style="display:none"/></g><g stroke="#08A88A" stroke-linecap="round" stroke-linejoin="round" stroke-width="12" clip-path="url(#p)" mask="url(#q)" style="display:block"><path d="M-46.998 0h93.996" class="secondary" style="display:block" transform="translate(248.655 335.209)"/><path d="m-19.9.212 13.228 13.131 26.687-26.686" class="secondary" style="display:block" transform="translate(154.955 335.209)"/><path d="M-46.998 0h93.996" class="secondary" style="display:block" transform="translate(248.655 268.209)"/><path d="m-19.9.212 13.228 13.131 26.687-26.686" class="secondary" style="display:block" transform="translate(154.955 268.209)"/><path d="M-46.998 0h93.996" class="secondary" style="display:block" transform="translate(248.655 201.709)"/><path d="m-19.9.212 13.228 13.131 26.687-26.686" class="secondary" style="display:block" transform="translate(154.955 201.709)"/></g><g stroke="#121331" stroke-linecap="round" stroke-linejoin="round" stroke-width="12" style="display:block"><path d="M241.69 28.19H81.57v373.14h266.86V134.94L241.69 28.19z" class="primary"/><path d="M241.687 28.194V134.94h106.746" class="primary"/></g><path stroke="#121331" stroke-linecap="round" stroke-linejoin="round" stroke-width="12" d="M-53.373-53.373s3.306 2.315 53 52.746c50.313 51.06 53.746 54 53.746 54" class="primary" style="display:block" transform="translate(295.06 81.567)"/></g><g clip-path="url(#r)" style="display:none"><g clip-path="url(#s)" style="display:none"><path class="secondary" style="display:none"/><path class="secondary" style="display:none"/><path class="secondary" style="display:none"/><path class="secondary" style="display:none"/><path class="secondary" style="display:none"/><path class="secondary" style="display:none"/></g><path class="primary" style="display:none"/><g style="display:none"><path class="primary"/><path class="primary"/></g><path class="primary" style="display:none"/></g><g clip-path="url(#t)" style="display:none"><g clip-path="url(#u)" mask="url(#v)" style="display:none"><path class="secondary" style="display:none"/><path class="secondary" style="display:none"/><path class="secondary" style="display:none"/><path class="secondary" style="display:none"/><path class="secondary" style="display:none"/><path class="secondary" style="display:none"/></g><path class="primary" style="display:none"/><path class="primary" style="display:none"/><g style="display:none"><path class="primary"/><path class="primary"/></g></g></g></svg>